<mxfile host="65bd71144e">
    <diagram id="uQtb4kDnB-4BG6wCOJv8" name="Page-1">
        <mxGraphModel dx="3510" dy="911" grid="1" gridSize="10" guides="1" tooltips="1" connect="1" arrows="1" fold="1" page="1" pageScale="1" pageWidth="827" pageHeight="1169" math="0" shadow="0">
            <root>
                <mxCell id="0"/>
                <mxCell id="1" parent="0"/>
                <mxCell id="209" value="" style="swimlane;startSize=0;strokeWidth=2;" vertex="1" parent="1">
                    <mxGeometry x="-880" y="320" width="820" height="600" as="geometry"/>
                </mxCell>
                <mxCell id="210" value="&lt;h2 class=&quot;awsui_header-text_1r9lg_5gt1n_553&quot; style=&quot;font-size: 21px&quot;&gt;AWS-Appsync-API&lt;/h2&gt;" style="text;html=1;align=center;verticalAlign=middle;resizable=0;points=[];autosize=1;strokeColor=none;fillColor=none;fontSize=21;" vertex="1" parent="209">
                    <mxGeometry x="115" width="210" height="70" as="geometry"/>
                </mxCell>
                <mxCell id="211" value="" style="sketch=0;points=[[0,0,0],[0.25,0,0],[0.5,0,0],[0.75,0,0],[1,0,0],[0,1,0],[0.25,1,0],[0.5,1,0],[0.75,1,0],[1,1,0],[0,0.25,0],[0,0.5,0],[0,0.75,0],[1,0.25,0],[1,0.5,0],[1,0.75,0]];points=[[0,0,0],[0.25,0,0],[0.5,0,0],[0.75,0,0],[1,0,0],[0,1,0],[0.25,1,0],[0.5,1,0],[0.75,1,0],[1,1,0],[0,0.25,0],[0,0.5,0],[0,0.75,0],[1,0.25,0],[1,0.5,0],[1,0.75,0]];outlineConnect=0;fontColor=#232F3E;gradientColor=#F34482;gradientDirection=north;fillColor=#BC1356;strokeColor=#ffffff;dashed=0;verticalLabelPosition=bottom;verticalAlign=top;align=center;html=1;fontSize=12;fontStyle=0;aspect=fixed;shape=mxgraph.aws4.resourceIcon;resIcon=mxgraph.aws4.cloudformation;" vertex="1" parent="209">
                    <mxGeometry width="80" height="80" as="geometry"/>
                </mxCell>
                <mxCell id="212" style="edgeStyle=none;html=1;" edge="1" parent="209" source="215" target="238">
                    <mxGeometry relative="1" as="geometry">
                        <mxPoint x="559" y="280" as="targetPoint"/>
                    </mxGeometry>
                </mxCell>
                <mxCell id="213" style="edgeStyle=none;html=1;entryX=0;entryY=0.25;entryDx=0;entryDy=0;entryPerimeter=0;exitX=1;exitY=0.25;exitDx=0;exitDy=0;exitPerimeter=0;" edge="1" parent="209" source="215" target="218">
                    <mxGeometry relative="1" as="geometry"/>
                </mxCell>
                <mxCell id="214" value="&lt;span style=&quot;font-size: 11px; background-color: rgb(251, 251, 251);&quot;&gt;graphql&lt;/span&gt;.example.co.uk" style="edgeLabel;html=1;align=center;verticalAlign=middle;resizable=0;points=[];fontSize=11;" vertex="1" connectable="0" parent="213">
                    <mxGeometry x="-0.1185" y="2" relative="1" as="geometry">
                        <mxPoint x="-29" y="-3" as="offset"/>
                    </mxGeometry>
                </mxCell>
                <mxCell id="215" value="" style="sketch=0;points=[[0,0,0],[0.25,0,0],[0.5,0,0],[0.75,0,0],[1,0,0],[0,1,0],[0.25,1,0],[0.5,1,0],[0.75,1,0],[1,1,0],[0,0.25,0],[0,0.5,0],[0,0.75,0],[1,0.25,0],[1,0.5,0],[1,0.75,0]];outlineConnect=0;fontColor=#232F3E;gradientColor=#945DF2;gradientDirection=north;fillColor=#5A30B5;strokeColor=#ffffff;dashed=0;verticalLabelPosition=bottom;verticalAlign=top;align=center;html=1;fontSize=12;fontStyle=0;aspect=fixed;shape=mxgraph.aws4.resourceIcon;resIcon=mxgraph.aws4.route_53;" vertex="1" parent="209">
                    <mxGeometry x="600" y="120" width="78" height="78" as="geometry"/>
                </mxCell>
                <mxCell id="216" style="edgeStyle=none;html=1;exitX=0;exitY=0.75;exitDx=0;exitDy=0;exitPerimeter=0;entryX=0;entryY=0.75;entryDx=0;entryDy=0;entryPerimeter=0;" edge="1" parent="209" source="218" target="215">
                    <mxGeometry relative="1" as="geometry">
                        <mxPoint x="440" y="180" as="targetPoint"/>
                    </mxGeometry>
                </mxCell>
                <mxCell id="237" value="https://abc123.appsync-api.eu-west-2.amazonaws.com/graphql" style="edgeLabel;html=1;align=center;verticalAlign=middle;resizable=0;points=[];fontSize=11;" vertex="1" connectable="0" parent="216">
                    <mxGeometry x="0.1385" y="1" relative="1" as="geometry">
                        <mxPoint y="1" as="offset"/>
                    </mxGeometry>
                </mxCell>
                <mxCell id="218" value="domain record sets" style="sketch=0;points=[[0,0,0],[0.25,0,0],[0.5,0,0],[0.75,0,0],[1,0,0],[0,1,0],[0.25,1,0],[0.5,1,0],[0.75,1,0],[1,1,0],[0,0.25,0],[0,0.5,0],[0,0.75,0],[1,0.25,0],[1,0.5,0],[1,0.75,0]];outlineConnect=0;fontColor=#232F3E;gradientColor=#945DF2;gradientDirection=north;fillColor=#5A30B5;strokeColor=#ffffff;dashed=0;verticalLabelPosition=bottom;verticalAlign=top;align=center;html=1;fontSize=12;fontStyle=0;aspect=fixed;shape=mxgraph.aws4.resourceIcon;resIcon=mxgraph.aws4.route_53;" vertex="1" parent="209">
                    <mxGeometry x="70" y="120" width="78" height="78" as="geometry"/>
                </mxCell>
                <mxCell id="219" value="&lt;span style=&quot;background-color: rgb(255, 255, 255); font-size: 11px; color: rgb(0, 0, 0);&quot;&gt;graphql.example.co.uk cert&lt;/span&gt;" style="sketch=0;points=[[0,0,0],[0.25,0,0],[0.5,0,0],[0.75,0,0],[1,0,0],[0,1,0],[0.25,1,0],[0.5,1,0],[0.75,1,0],[1,1,0],[0,0.25,0],[0,0.5,0],[0,0.75,0],[1,0.25,0],[1,0.5,0],[1,0.75,0]];outlineConnect=0;fontColor=#232F3E;gradientColor=#F54749;gradientDirection=north;fillColor=#C7131F;strokeColor=#ffffff;dashed=0;verticalLabelPosition=bottom;verticalAlign=top;align=center;html=1;fontSize=12;fontStyle=0;aspect=fixed;shape=mxgraph.aws4.resourceIcon;resIcon=mxgraph.aws4.certificate_manager_3;" vertex="1" parent="209">
                    <mxGeometry x="70" y="240" width="78" height="78" as="geometry"/>
                </mxCell>
                <mxCell id="260" style="edgeStyle=none;html=1;entryX=0.5;entryY=0;entryDx=0;entryDy=0;entryPerimeter=0;fontSize=11;" edge="1" parent="209" source="238" target="259">
                    <mxGeometry relative="1" as="geometry"/>
                </mxCell>
                <mxCell id="263" value="Mutation" style="edgeLabel;html=1;align=center;verticalAlign=middle;resizable=0;points=[];fontSize=11;" vertex="1" connectable="0" parent="260">
                    <mxGeometry x="0.1359" relative="1" as="geometry">
                        <mxPoint y="-5" as="offset"/>
                    </mxGeometry>
                </mxCell>
                <mxCell id="238" value="GraphQLApi" style="sketch=0;points=[[0,0,0],[0.25,0,0],[0.5,0,0],[0.75,0,0],[1,0,0],[0,1,0],[0.25,1,0],[0.5,1,0],[0.75,1,0],[1,1,0],[0,0.25,0],[0,0.5,0],[0,0.75,0],[1,0.25,0],[1,0.5,0],[1,0.75,0]];outlineConnect=0;fontColor=#232F3E;gradientColor=#FF4F8B;gradientDirection=north;fillColor=#BC1356;strokeColor=#ffffff;dashed=0;verticalLabelPosition=bottom;verticalAlign=top;align=center;html=1;fontSize=12;fontStyle=0;aspect=fixed;shape=mxgraph.aws4.resourceIcon;resIcon=mxgraph.aws4.appsync;" vertex="1" parent="209">
                    <mxGeometry x="600" y="280" width="78" height="78" as="geometry"/>
                </mxCell>
                <mxCell id="239" value="postsTable" style="outlineConnect=0;dashed=0;verticalLabelPosition=bottom;verticalAlign=top;align=center;html=1;shape=mxgraph.aws3.dynamo_db;fillColor=#2E73B8;gradientColor=none;fontSize=11;" vertex="1" parent="209">
                    <mxGeometry x="363" y="440" width="72" height="81" as="geometry"/>
                </mxCell>
                <mxCell id="257" style="edgeStyle=none;html=1;entryX=0.5;entryY=0;entryDx=0;entryDy=0;entryPerimeter=0;fontSize=11;" edge="1" parent="209" source="254" target="239">
                    <mxGeometry relative="1" as="geometry"/>
                </mxCell>
                <mxCell id="258" value="GetItem" style="edgeLabel;html=1;align=center;verticalAlign=middle;resizable=0;points=[];fontSize=11;" vertex="1" connectable="0" parent="257">
                    <mxGeometry x="0.252" relative="1" as="geometry">
                        <mxPoint y="-10" as="offset"/>
                    </mxGeometry>
                </mxCell>
                <mxCell id="254" value="getPostResolver" style="sketch=0;points=[[0,0,0],[0.25,0,0],[0.5,0,0],[0.75,0,0],[1,0,0],[0,1,0],[0.25,1,0],[0.5,1,0],[0.75,1,0],[1,1,0],[0,0.25,0],[0,0.5,0],[0,0.75,0],[1,0.25,0],[1,0.5,0],[1,0.75,0]];outlineConnect=0;fontColor=#232F3E;gradientColor=#FF4F8B;gradientDirection=north;fillColor=#BC1356;strokeColor=#ffffff;dashed=0;verticalLabelPosition=bottom;verticalAlign=top;align=center;html=1;fontSize=12;fontStyle=0;aspect=fixed;shape=mxgraph.aws4.resourceIcon;resIcon=mxgraph.aws4.appsync;" vertex="1" parent="209">
                    <mxGeometry x="360" y="280" width="78" height="78" as="geometry"/>
                </mxCell>
                <mxCell id="255" style="edgeStyle=none;html=1;fontSize=11;" edge="1" parent="209">
                    <mxGeometry relative="1" as="geometry">
                        <mxPoint x="600" y="318.58" as="sourcePoint"/>
                        <mxPoint x="438" y="318.58" as="targetPoint"/>
                    </mxGeometry>
                </mxCell>
                <mxCell id="256" value="Query" style="edgeLabel;html=1;align=center;verticalAlign=middle;resizable=0;points=[];fontSize=11;" vertex="1" connectable="0" parent="255">
                    <mxGeometry x="0.3395" relative="1" as="geometry">
                        <mxPoint x="28" as="offset"/>
                    </mxGeometry>
                </mxCell>
                <mxCell id="261" style="edgeStyle=none;html=1;entryX=1;entryY=0.5;entryDx=0;entryDy=0;entryPerimeter=0;fontSize=11;" edge="1" parent="209" source="259" target="239">
                    <mxGeometry relative="1" as="geometry"/>
                </mxCell>
                <mxCell id="262" value="PutItem" style="edgeLabel;html=1;align=center;verticalAlign=middle;resizable=0;points=[];fontSize=11;" vertex="1" connectable="0" parent="261">
                    <mxGeometry x="-0.0842" relative="1" as="geometry">
                        <mxPoint as="offset"/>
                    </mxGeometry>
                </mxCell>
                <mxCell id="259" value="addPostResolver" style="sketch=0;points=[[0,0,0],[0.25,0,0],[0.5,0,0],[0.75,0,0],[1,0,0],[0,1,0],[0.25,1,0],[0.5,1,0],[0.75,1,0],[1,1,0],[0,0.25,0],[0,0.5,0],[0,0.75,0],[1,0.25,0],[1,0.5,0],[1,0.75,0]];outlineConnect=0;fontColor=#232F3E;gradientColor=#FF4F8B;gradientDirection=north;fillColor=#BC1356;strokeColor=#ffffff;dashed=0;verticalLabelPosition=bottom;verticalAlign=top;align=center;html=1;fontSize=12;fontStyle=0;aspect=fixed;shape=mxgraph.aws4.resourceIcon;resIcon=mxgraph.aws4.appsync;" vertex="1" parent="209">
                    <mxGeometry x="600" y="440" width="78" height="78" as="geometry"/>
                </mxCell>
                <mxCell id="235" value="https://graphql.example.co.uk" style="text;html=1;align=center;verticalAlign=middle;resizable=0;points=[];autosize=1;strokeColor=none;fillColor=none;fontSize=14;" vertex="1" parent="1">
                    <mxGeometry x="-526.2" y="180" width="210" height="30" as="geometry"/>
                </mxCell>
                <mxCell id="240" style="edgeStyle=none;html=1;exitX=0.5;exitY=0.5;exitDx=0;exitDy=0;exitPerimeter=0;entryX=0.5;entryY=0;entryDx=0;entryDy=0;entryPerimeter=0;fontSize=11;" edge="1" parent="1" source="236" target="215">
                    <mxGeometry relative="1" as="geometry">
                        <Array as="points">
                            <mxPoint x="-241" y="240"/>
                        </Array>
                    </mxGeometry>
                </mxCell>
                <mxCell id="236" value="Actor" style="shape=umlActor;verticalLabelPosition=bottom;verticalAlign=top;html=1;outlineConnect=0;strokeWidth=2;fontSize=14;" vertex="1" parent="1">
                    <mxGeometry x="-436.2" y="210" width="30" height="60" as="geometry"/>
                </mxCell>
            </root>
        </mxGraphModel>
    </diagram>
</mxfile>